<svg xmlns="http://www.w3.org/2000/svg" width="269.756" height="71.215" viewBox="0 0 269.756 71.215">
  <g id="Group_15" data-name="Group 15" transform="translate(0.256 -0.085)">
    <g id="Group_1" data-name="Group 1">
      <path id="Path_1" data-name="Path 1" d="M34.3,66.4Z" fill="none"/>
      <path id="Path_2" data-name="Path 2" d="M37.4,51.8a3.079,3.079,0,0,0-3-3.3c-2.1-.1-8.1-.1-10.2-.1h0c-4.9,0-9.9-.2-14.8.1A3.277,3.277,0,0,1,7,47.8c-1.2-1.4-.4-3.7-.4-5.3,0-1.9,1.4-2.6,3.1-2.6,3.1,0,6.2.2,9.3.1H32.2c2.3,0,4-.8,4.6-3.2.7-2.6.2-5.5.5-8.2v-.1c0-2.4.1-4.9,0-7.3a3.553,3.553,0,0,0-.8-2c-1.2-1.4-2.9-1.2-4.5-1-1.4,0-8.4-.1-9.9-.1V15.4a1.27,1.27,0,0,1,.4-.7,5.734,5.734,0,0,0,2-3.3,12.382,12.382,0,0,0-2.3-9.3A5.223,5.223,0,0,0,20.3.7a4.487,4.487,0,0,0-5,1.2,12.987,12.987,0,0,0-2.6,8,5.576,5.576,0,0,0,2.4,5c.2.1.3.5.3.8v5.4A3.36,3.36,0,0,0,19,24.7h8.9a21.75,21.75,0,0,0,2.5-.1,1.884,1.884,0,0,1,.2.8v8H2.8A3.089,3.089,0,0,0-.1,36c0,.3-.1.6-.1.9h0V51a3.507,3.507,0,0,0,3.6,4.3H27.5c.7,0,2.3-.3,2.8.3.7.7.2,3.2.2,4.1v2.6A1.8,1.8,0,0,1,29.2,64h-.1c-.6.1-1.2.2-1.9.3l-9.9,1.5c-2.1.3-4.2.7-6.3.8-.9.1-3.4.2-2.9,1.7.3,1.1,2.1,2.1,3.1,2.2H34.5a3,3,0,0,0,2.7-2.8,22.534,22.534,0,0,0,0-2.6C37.4,61.9,37.4,52.9,37.4,51.8ZM34.3,66.4Z" fill="#ae6b6b"/>
    </g>
    <path id="Path_3" data-name="Path 3" d="M95.3,2.8a2.144,2.144,0,0,0-2.9-1.3C89.1,3,81.9,4.3,80.3,4.6a4.514,4.514,0,0,0-3.4-1.5,4.272,4.272,0,0,0-3.4,1.6h0S64.8,3.2,61,1.5a2.144,2.144,0,0,0-2.9,1.3c-.7,2.1-1,5,1.2,7,0,0-1.6,7.7,3.2,6.9s9.9-7.4,11-6.4h0a4.272,4.272,0,0,0,3.4,1.6,4.561,4.561,0,0,0,3.5-1.7c1.7.3,6.2,5.7,10.5,6.5,4.8.8,3.2-6.9,3.2-6.9C96.3,7.7,96,4.8,95.3,2.8Z" fill="#ae6b6b"/>
    <circle id="Ellipse_1" data-name="Ellipse 1" cx="4" cy="4" r="4" transform="translate(72.7 21.2)" fill="#ae6b6b"/>
    <circle id="Ellipse_2" data-name="Ellipse 2" cx="4" cy="4" r="4" transform="translate(72.7 33.7)" fill="#ae6b6b"/>
    <circle id="Ellipse_3" data-name="Ellipse 3" cx="4" cy="4" r="4" transform="translate(72.7 61.3)" fill="#ae6b6b"/>
    <circle id="Ellipse_4" data-name="Ellipse 4" cx="4" cy="4" r="4" transform="translate(72.7 47.6)" fill="#ae6b6b"/>
    <path id="Path_4" data-name="Path 4" d="M145.6,9.5c-1.1-3.3-2.8-7.5-3.8-8.8-1.2-1.7-5.8.6-7.1,1.2a.638.638,0,0,1-.6,0c-1.3-.6-6-2.9-7.2-1.1a49.259,49.259,0,0,0-3.8,8.8c-4,.6-9.5,2.2-6.6,6,4.1,5.3,15.9,6.3,17.8,6.4h.5c1.9-.1,13.7-1.1,17.8-6.4C155.9,11.5,149.6,10,145.6,9.5Z" fill="#ae6b6b"/>
    <g id="Group_2" data-name="Group 2">
      <path id="Path_5" data-name="Path 5" d="M147.9,24.3c0-.2,0-.7-.2-.8h-.1a12.037,12.037,0,0,0-3.2-.6,35.612,35.612,0,0,0-8,.8c-1.9.6-1.6.6-1.9.6-.4,0,0,0-1.9-.6a34.472,34.472,0,0,0-8-.8,11.336,11.336,0,0,0-3.2.6h-.1c-.2.1-.2.6-.2.8a1.209,1.209,0,0,0,.3,1c.1.1.4.2.5.4.1.1.1.4.1.6.1.4.2.9.3,1.3.3,1.5.8,3.3,2.2,4a8.3,8.3,0,0,0,2.1.6,6.608,6.608,0,0,0,2.8,0,3.435,3.435,0,0,0,2.2-1.2,6.118,6.118,0,0,0,.5-1.2c.3-.6.5-1.3.8-1.9.3-.7.5-2,1.4-2.2,1.1-.2,1.5,1.4,1.9,2.2a15.385,15.385,0,0,1,.8,1.9c.2.4.3.8.5,1.2a3.7,3.7,0,0,0,2.2,1.2,6.608,6.608,0,0,0,2.8,0,8.3,8.3,0,0,0,2.1-.6c1.4-.7,1.9-2.6,2.2-4,.1-.4.2-.9.3-1.3a1.268,1.268,0,0,1,.1-.6c.1-.1.3-.2.5-.4A1.232,1.232,0,0,0,147.9,24.3Z" fill="#ae6b6b"/>
      <path id="Path_6" data-name="Path 6" d="M134.5,25.6Z" fill="#ae6b6b"/>
    </g>
    <path id="Path_7" data-name="Path 7" d="M137.4,44.9l-2.8,3.2-2.8-3.2,2.8-3.2Z" fill="#ae6b6b"/>
    <path id="Path_8" data-name="Path 8" d="M134.5,49,132,67.3l2.5,4,2.6-4.2Z" fill="#ae6b6b"/>
    <g id="Group_8" data-name="Group 8">
      <g id="Group_4" data-name="Group 4">
        <g id="Group_3" data-name="Group 3">
          <path id="Path_9" data-name="Path 9" d="M183.7,34v.7a4.334,4.334,0,0,1-.4,1.9c-.2.4-.3.9-.5,1.3a3.1,3.1,0,0,0,.2,2.5,8.792,8.792,0,0,0,.6,1,6.937,6.937,0,0,1,.8,2.8,2.092,2.092,0,0,1,.6-.4h.1a7.8,7.8,0,0,1-.3-2.2,20.679,20.679,0,0,1,.3-3.5,3.582,3.582,0,0,1,.4-1.1c.1-.1.2-.2.3-.1h0c.2-.1.3.1.4.3.1.1.1.2.2.3a2.132,2.132,0,0,0,1.1,1,7.459,7.459,0,0,1,1.2.7,3.369,3.369,0,0,1,1.1,1.7,7.587,7.587,0,0,1,.1,3,2.1,2.1,0,0,1,1.1.4h0a.1.1,0,0,1,.1.1l.1.1a5.444,5.444,0,0,1,1.1-1.8,2.39,2.39,0,0,1,3-.8,1.421,1.421,0,0,0,.6.2,1.275,1.275,0,0,0,1.2,0c.1,0,.2-.1.3-.1h.2a.367.367,0,0,1,.3.1h.1a.52.52,0,0,1,.2.4,2.768,2.768,0,0,1-.1.9,11.379,11.379,0,0,1-2.4,4.3l-.4.4h0c0,.1.1.1.1.2h0c0,.1.1.1.1.2h0c0,.1,0,.1.1.2v.2a3.891,3.891,0,0,1,2-1.6,3.552,3.552,0,0,0,.9-.4,2.476,2.476,0,0,0,1.5-2c.1-.3.1-.7.2-1a6.637,6.637,0,0,1,.6-2l.3-.6a.349.349,0,0,1,.1-.2h0c-.1,0-.3-.1-.4-.1a16.578,16.578,0,0,1-5-3.9,14.358,14.358,0,0,1-2.2-3.1c-.2-.3-.3-.4-.6-.2a12.693,12.693,0,0,1-7.2.5,17.234,17.234,0,0,1-2.1-.7C183.7,33.8,183.7,33.9,183.7,34Z" fill="#ae6b6b"/>
          <path id="Path_10" data-name="Path 10" d="M207.6,41.9a6.753,6.753,0,0,1-1.4.2,14.083,14.083,0,0,1-4.5-.7v.1a9.172,9.172,0,0,0,1.3,2.1,11.856,11.856,0,0,1,1.6,3.4,6.929,6.929,0,0,1,.3,2,8.6,8.6,0,0,1-.1,1.6l-.3,1.5v.1c0,.1-.1.2-.1.4a9.484,9.484,0,0,1-4,5.3,4.793,4.793,0,0,1-2,.7l-1.5.3a.758.758,0,0,0-.4.2h0a.1.1,0,0,0,.1.1,2.978,2.978,0,0,1-.1,2.3v.2a1.65,1.65,0,0,1-1.5.9,1.922,1.922,0,0,1-1.2-.4h0a1.381,1.381,0,0,0-.4-.3c-.1,0-.1-.1-.2-.1s-.1,0-.2.1h0a.1.1,0,0,1-.1.1v.2a2.4,2.4,0,0,1-.7,1.2h0l-.1.1h0a.1.1,0,0,0-.1.1h0a.1.1,0,0,0-.1.1h0a.1.1,0,0,0-.1.1h-1.3a.1.1,0,0,1-.1-.1h0a.1.1,0,0,1-.1-.1h0a.1.1,0,0,1-.1-.1h0l-.1-.1h0c-.1-.1-.2-.1-.2-.2v-.1h0a4.35,4.35,0,0,1-.6-.7c-.3-.4-.3-.4-.6-.3a4.161,4.161,0,0,0,1.6,2.6c.2.1.3.3.5.5a.483.483,0,0,1,0,.7h0a.738.738,0,0,1-.6.5,2.483,2.483,0,0,1-.9-.1,3.039,3.039,0,0,1-1.2-1.3,4.678,4.678,0,0,1-.5-2.6h-.3a18.1,18.1,0,0,0,.3,2.3c.1.1.1.2.1.4a.894.894,0,0,1-.4.8.616.616,0,0,1-.7-.1l-.1-.1-.1-.1-.1-.1a.908.908,0,0,0-.7-.3h-.2c-.3.1-.7-.2-.8-.7a1.19,1.19,0,0,1,.4-1.1h0l.3-.3a6.886,6.886,0,0,0,1.1-1.3v-.1l-.2-.2a2.905,2.905,0,0,1-3.1,1.8,1.779,1.779,0,0,1-1.1-.8,1.2,1.2,0,0,1-.2-.8h0a.462.462,0,0,1,.3-.5,1.268,1.268,0,0,1,.6-.1h1a2.469,2.469,0,0,0,1.6-.8v-.2c-.1-.2-.1-.2-.4-.2h0a2.2,2.2,0,0,1-.8.1h-.2a1.949,1.949,0,0,1-.8-.1H183a2.186,2.186,0,0,1-.5-.3c-.1-.1-.2-.1-.3-.2s-.2-.3-.3-.4h0a3.429,3.429,0,0,1-.5-2.7.367.367,0,0,1,.1-.3c0-.2,0-.3-.1-.3-.2,0-.5-.1-.7-.1A2.288,2.288,0,0,1,179,54a2.376,2.376,0,0,1,.3-2.3,2.7,2.7,0,0,1,.8-.7l-.6-.9c-.4-.6-.9-1.2-1.3-1.8a10.636,10.636,0,0,1-1.6-5.3v-.8a5.283,5.283,0,0,1,.1-1.3v-.1a4.4,4.4,0,0,1,.2-1,1.421,1.421,0,0,1,.2-.6v-.1a8.038,8.038,0,0,1,1.3-2.8.1.1,0,0,1,.1-.1l.1-.1c0-.1.1-.1.1-.2h0l.2-.2h0c0-.1.1-.1.2-.2h0l.1-.1a.1.1,0,0,0,.1-.1h0l.1-.1c.1,0,.1-.1.2-.1a.1.1,0,0,0,.1-.1l.2-.2a5.071,5.071,0,0,1,1.6-.9c.1,0,.2-.1.4-.1.3-.1.6-.2,1-.3a3.942,3.942,0,0,0,1.4-.5h.1a22.738,22.738,0,0,1-3.2-2.2,10.455,10.455,0,0,1-1.7-1.9.735.735,0,0,1-.2-.6,29.962,29.962,0,0,0-1.7,4.5c-.4,1.2-.6,2.4-.9,3.6a36.208,36.208,0,0,0-.6,4.6,44.5,44.5,0,0,0,.1,7.3c.1,1.6.3,3.3.5,4.9a8.533,8.533,0,0,1,0,1.6,5.384,5.384,0,0,1-.9,3.1c-.3.4-.5.9-.8,1.4h.1c.2-.1.3.2.4.4a15.258,15.258,0,0,0,3.8,4.8,16.436,16.436,0,0,0,3.3,2.6,15.6,15.6,0,0,0,4.1,2,18.031,18.031,0,0,0,3.9.8c.6,0,1.2.1,1.7.1a12.423,12.423,0,0,0,3.3-.4,4.418,4.418,0,0,0,1.6-.6c.2-.1.3,0,.4.1a12.749,12.749,0,0,0,.1-2,4.011,4.011,0,0,1,.3-1.9,8.477,8.477,0,0,1,1-1.9c.9-1.1,1.7-2.2,2.6-3.3,1.1-1.5,2.2-3,3.2-4.6a33.879,33.879,0,0,0,3.3-7.8,35.6,35.6,0,0,0,1-4.7,11.018,11.018,0,0,0,.2-1.8C207.9,41.7,207.8,41.9,207.6,41.9Z" fill="#ae6b6b"/>
        </g>
        <path id="Path_11" data-name="Path 11" d="M211.3,14.2a22.132,22.132,0,0,0-1.5-5,22.468,22.468,0,0,0-3.6-5.3,10.227,10.227,0,0,0-7-3.6A12.621,12.621,0,0,0,190,3.1a15.741,15.741,0,0,0-5.1,8.1,42.476,42.476,0,0,0-1.2,6,27,27,0,0,1-.8,3.9,4.351,4.351,0,0,1-1,1.9c-.3.4-.7.8-1,1.2a3.591,3.591,0,0,0-.7,1h0c.1-.1.2-.1.4,0l.4.4a10.163,10.163,0,0,0,4.6,2.6c.7.2,1.3.4,1.9.6a12.949,12.949,0,0,0,3.9.4,7.8,7.8,0,0,0,2.2-.4c.2,0,.3-.1.4-.1a.961.961,0,0,1,1.3.6c.2.3.3.5.5.8a12.725,12.725,0,0,0,3.6,3.7,13.989,13.989,0,0,0,2.6,1.6c.3.1.6.4.9.5a9.472,9.472,0,0,0,4.3,1.1h.4c.3,0,.4.1.4.3-.1-.9-.2-1.7-.3-2.6a8.133,8.133,0,0,1,.2-3.1c.3-.9.5-1.8.9-2.7.2-.5.4-1.1.7-1.7.3-.7.5-1.5.8-2.3a19.394,19.394,0,0,0,1.3-5.4A19.117,19.117,0,0,0,211.3,14.2ZM207,20.6c-1.7,6.2-7,9.6-12.1,7.5-5.1-2.2-7.6-9.3-5.9-15.4,1.9-6.5,7.3-9.5,12-7.4C205.9,7.4,208.7,14.2,207,20.6Z" fill="#ae6b6b"/>
      </g>
      <g id="Group_7" data-name="Group 7">
        <g id="Group_5" data-name="Group 5">
          <path id="Path_12" data-name="Path 12" d="M204.9,22.9c1,.4,1.1.7.5,1.6a9.144,9.144,0,0,1-4,3.6,4.075,4.075,0,0,1-1.8.5c-.3,0-.4-.1-.4-.5v-.6a6.272,6.272,0,0,1,2.5-4.3A3.67,3.67,0,0,1,204.9,22.9Z" fill="#ae6b6b"/>
          <path id="Path_13" data-name="Path 13" d="M192,23.6a5.024,5.024,0,0,1-.5,1.3c-.1.2-.3.2-.5.1a1.38,1.38,0,0,1-.3-.4,12.987,12.987,0,0,1-1.4-2.9,14.351,14.351,0,0,1-.8-4.6c0-.9,0-1.3,1-.8a4.948,4.948,0,0,1,2.7,3.9A6.625,6.625,0,0,1,192,23.6Z" fill="#ae6b6b"/>
        </g>
        <path id="Path_14" data-name="Path 14" d="M196.8,21.3a1.948,1.948,0,0,1,1.7,1.2c.3.4.6.6,1,.5h.5a.366.366,0,0,1,.4.4.565.565,0,0,1-.2.6c-.1.1-.2.2-.3.2a4.364,4.364,0,0,0-1.9,1.2,2.461,2.461,0,0,1-3.8-.8,3.128,3.128,0,0,1-.5-1,8.954,8.954,0,0,0-.8-2.3,1.445,1.445,0,0,1-.2-.7c0-.2,0-.4.2-.5a.3.3,0,0,1,.4,0c.1,0,.1.1.2.2a1.216,1.216,0,0,0,1.5.6A1.781,1.781,0,0,1,196.8,21.3Z" fill="#ae6b6b"/>
        <path id="Path_15" data-name="Path 15" d="M189.2,12a10.318,10.318,0,0,1,2-3.9,7.11,7.11,0,0,1,2.6-2.3,8.176,8.176,0,0,1,5.9-1,8.664,8.664,0,0,1,4.7,3,14.2,14.2,0,0,1,2.7,5,15.524,15.524,0,0,1,.4,2.1,13.787,13.787,0,0,1-.4,5.7c0,.1,0,.1-.1.2-.2.6-.4.7-.8.4A3.447,3.447,0,0,1,205,20c-.2-.3-.3-.5-.5-.8s-.4-.7-.6-1a2.437,2.437,0,0,0-1.7-1.3,3.465,3.465,0,0,1-1.6-.8,4.517,4.517,0,0,1-1.3-3.3,2.768,2.768,0,0,1,.1-.9v-.2c0,.1-.1.1-.1.2-.2.3-.4.7-.6,1a2.578,2.578,0,0,1-2.1,1.3,3.085,3.085,0,0,1-1.8-.5,2.15,2.15,0,0,0-2.3-.3c-.4.2-.9.3-1.3.5a2.917,2.917,0,0,1-1.6.1.758.758,0,0,1-.4-.2c-.2-.1-.2-.3-.2-.5A4.44,4.44,0,0,1,189.2,12Z" fill="#ae6b6b"/>
        <g id="Group_6" data-name="Group 6">
          <path id="Path_16" data-name="Path 16" d="M203.8,19.3a.367.367,0,0,1,.3.1c.1,0,.2.1.2.3,0,.1-.1.2-.2.3l-.1.1c-.2.1-.3.2-.1.4a.349.349,0,0,1,.1.2c0,.2-.1.3-.2.3a.55.55,0,0,1-.5-.3l-.6-.9c-.2-.3-.2-.3-.4,0v.1c-.7.8-1.5.6-1.9-.4,0-.1-.1-.2-.1-.3-.1-.2,0-.6-.2-.6s-.4.2-.6.3-.4.3-.6.3a.215.215,0,0,1-.2-.2c0-.1,0-.3.1-.3a5.71,5.71,0,0,1,2.1-1.3,1.485,1.485,0,0,1,1.4.4,1.553,1.553,0,0,0,1.4.5h.2a.215.215,0,0,1,.2.2.52.52,0,0,1-.2.4.367.367,0,0,1-.3.1l-.1.1a.1.1,0,0,0,.1.1C203.4,19.2,203.6,19.2,203.8,19.3Z" fill="#ae6b6b"/>
          <path id="Path_17" data-name="Path 17" d="M192.2,14.3c.1.1.3.1.4.2a.1.1,0,0,0,.1-.1v-.2c-.1-.2-.2-.3-.2-.5s.1-.3.2-.3c.1.1.3.2.4.3a2.22,2.22,0,0,0,1.1.5,1.882,1.882,0,0,1,1.5,1,8.544,8.544,0,0,1,.9,2.4c0,.1,0,.3-.1.3-.1.1-.2.1-.3-.1a9.292,9.292,0,0,1-.5-1c-.1-.4-.2-.5-.5-.2a1.193,1.193,0,0,1-.9.5c-.6,0-1-.4-1.2-1.1v-.4c0-.3-.1-.3-.3-.2a4.875,4.875,0,0,1-.7.3.638.638,0,0,1-.6,0c-.1-.1-.3-.1-.3-.4,0-.2.1-.2.3-.3s.2-.2.1-.3a.367.367,0,0,1-.1-.3.221.221,0,0,1,.3-.3c.2.1.3.1.4.2Z" fill="#ae6b6b"/>
        </g>
      </g>
      <path id="Path_18" data-name="Path 18" d="M207.3,39.6a10.056,10.056,0,0,1-3,0,14.908,14.908,0,0,1-3.9-1.3,13.139,13.139,0,0,1-3.4-2.4,7.7,7.7,0,0,1-2-3.4,5.024,5.024,0,0,0-.5-1.3c-.3-.6-.5-.7-1-.4a18.758,18.758,0,0,1-1.8,1.2,3.292,3.292,0,0,1-1.9.6,21.052,21.052,0,0,1-2.5-.2,16.293,16.293,0,0,1-3.1-1.1,11.392,11.392,0,0,1-4-3,10.625,10.625,0,0,1-.9-1.1c-.2-.3-.4-.3-.6.1l-.3.6a29.968,29.968,0,0,0-1.8,4.1,36.3,36.3,0,0,0-1.6,6.5,35.393,35.393,0,0,0-.4,7.3c.1,2.6.5,5.2.7,7.9a10.072,10.072,0,0,1-.1,3,2.769,2.769,0,0,0,.1,1.3,11.041,11.041,0,0,0,1.5,2.6,21.641,21.641,0,0,0,4,4,11.318,11.318,0,0,0,1.3,1,21.1,21.1,0,0,0,3.4,1.6,6.529,6.529,0,0,0,2,.5,18.16,18.16,0,0,0,5.2.2,8.507,8.507,0,0,0,3.1-.9,1.887,1.887,0,0,0,1-1.3,3.479,3.479,0,0,1,.7-1.5c.4-.5.7-1,1.1-1.5,1-1.3,2-2.5,2.9-3.8a33.329,33.329,0,0,0,5.4-11.2,30.053,30.053,0,0,0,.7-3.2,28.681,28.681,0,0,0,.5-4.1C208.1,39.5,208,39.5,207.3,39.6Zm-2.4,10.9-.3,1.5v.1c0,.1-.1.2-.1.4a9.165,9.165,0,0,1-4,5.3,4.793,4.793,0,0,1-2,.7l-1.5.3a.758.758,0,0,0-.4.2h0a.1.1,0,0,0,.1.1,3.27,3.27,0,0,1-.1,2.4v.2a1.65,1.65,0,0,1-1.5.9,1.922,1.922,0,0,1-1.2-.4h0a1.381,1.381,0,0,0-.4-.3c-.1,0-.1-.1-.2-.1s-.1,0-.2.1h0a.1.1,0,0,1-.1.1v.2a2.4,2.4,0,0,1-.7,1.2h0l-.1.1h0l-.1.1h0a.1.1,0,0,0-.1.1h0a.1.1,0,0,0-.1.1h-1.3a.1.1,0,0,1-.1-.1h0a.1.1,0,0,1-.1-.1h0a.1.1,0,0,1-.1-.1h0l-.1-.1h0c-.1-.1-.2-.1-.2-.2v-.1h0c-.2-.2-.4-.5-.6-.7-.3-.4-.3-.4-.6-.3a4.321,4.321,0,0,0,1.6,2.6c.2.1.3.3.5.5a.483.483,0,0,1,0,.7h0a.752.752,0,0,1-.7.5,2.483,2.483,0,0,1-.9-.1,3.039,3.039,0,0,1-1.2-1.3,4.855,4.855,0,0,1-.5-2.7h-.3a16.006,16.006,0,0,0,.3,2.3c.1.1.1.2.1.4a1.268,1.268,0,0,1-.4.9.616.616,0,0,1-.7-.1l-.1-.1-.1-.1-.1-.1a.908.908,0,0,0-.7-.3h-.2c-.3.1-.7-.2-.8-.7a1.19,1.19,0,0,1,.4-1.1h0l.3-.3a6.886,6.886,0,0,0,1.1-1.3v-.1l-.2-.2a2.905,2.905,0,0,1-3.1,1.8,1.622,1.622,0,0,1-1.1-.9,1.2,1.2,0,0,1-.2-.8h0a.462.462,0,0,1,.3-.5,1.268,1.268,0,0,1,.6-.1h1a2.469,2.469,0,0,0,1.6-.8V60c-.1-.2-.1-.2-.4-.2h0a2.2,2.2,0,0,1-.8.1h-.2a1.949,1.949,0,0,1-.8-.1H183a2.186,2.186,0,0,1-.5-.3c-.1-.1-.2-.1-.3-.2s-.2-.3-.3-.4h0a3.516,3.516,0,0,1-.5-2.7.367.367,0,0,1,.1-.3c0-.2,0-.3-.1-.3-.2,0-.5-.1-.7-.1a2.288,2.288,0,0,1-1.7-1.6,2.376,2.376,0,0,1,.3-2.3,2.7,2.7,0,0,1,.8-.7l-.6-.9c-.4-.6-.9-1.2-1.3-1.8a11.007,11.007,0,0,1-1.6-5.4V42a5.283,5.283,0,0,1,.1-1.3v-.1a4.4,4.4,0,0,1,.2-1,1.421,1.421,0,0,1,.2-.6v-.1a9.533,9.533,0,0,1,1.3-2.9.1.1,0,0,1,.1-.1l.1-.1c0-.1.1-.1.1-.2h0l.2-.2h0c0-.1.1-.1.2-.2h0l.1-.1a.1.1,0,0,0,.1-.1h0l.1-.1c.1,0,.1-.1.2-.1a.1.1,0,0,0,.1-.1l.2-.2a6.467,6.467,0,0,1,1.6-.9c.1,0,.2-.1.4-.1.3-.1.7-.2,1-.3a3.36,3.36,0,0,0,1.4-.5.446.446,0,0,1,.5,0h0a.749.749,0,0,1,.1.5v.7a4.334,4.334,0,0,1-.4,1.9c-.2.4-.3.9-.5,1.3a3.1,3.1,0,0,0,.2,2.5,8.792,8.792,0,0,0,.6,1,5.656,5.656,0,0,1,.8,2.8,2.092,2.092,0,0,1,.6-.4h.1a7.8,7.8,0,0,1-.3-2.2,20.679,20.679,0,0,1,.3-3.5,3.582,3.582,0,0,1,.4-1.1c.1-.1.2-.2.3-.1h0c.2-.1.3.1.4.3.1.1.1.2.2.3a2.132,2.132,0,0,0,1.1,1,7.459,7.459,0,0,1,1.2.7,3.369,3.369,0,0,1,1.1,1.7,6.1,6.1,0,0,1,.1,3,2.1,2.1,0,0,1,1.1.4h0a.1.1,0,0,1,.1.1l.1.1a5.444,5.444,0,0,1,1.1-1.8,2.419,2.419,0,0,1,3-.8,1.421,1.421,0,0,0,.6.2,1.275,1.275,0,0,0,1.2,0c.1,0,.2-.1.3-.1h.2a.367.367,0,0,1,.3.1h.1a.52.52,0,0,1,.2.4,3.751,3.751,0,0,1-.1,1,11.379,11.379,0,0,1-2.4,4.3l-.4.4h0c0,.1.1.1.1.2h0c0,.1.1.1.1.2h0c0,.1,0,.1.1.2v.2a3.891,3.891,0,0,1,2-1.6,3.552,3.552,0,0,0,.9-.4,2.476,2.476,0,0,0,1.5-2c.1-.4.1-.7.2-1a6.637,6.637,0,0,1,.6-2l.3-.6a.215.215,0,0,1,.2-.2h0c.1-.1.1-.1.2-.1a.51.51,0,0,1,.5.4,9.172,9.172,0,0,0,1.3,2.1,13.264,13.264,0,0,1,1.6,3.4,6.929,6.929,0,0,1,.3,2C205,49.4,205,49.9,204.9,50.5Z" fill="#ae6b6b"/>
    </g>
    <g id="_x39__1_">
      <path id="Path_19" data-name="Path 19" d="M269.3,53.5c-.1-.2-.2-.5-.3-.7a.781.781,0,0,0-.4-.4.471.471,0,0,0-.6-.1l-1.7,1.3,1.2,2.7,1.7-1.3a1.165,1.165,0,0,0,.2-.7A1.95,1.95,0,0,0,269.3,53.5Z" fill="#ae6b6b"/>
      <path id="Path_20" data-name="Path 20" d="M266.7,52.1c-.1-.1-.2-.1-.3.1a5.877,5.877,0,0,1-2.6,2,.937.937,0,0,0-.5.9V58c0,.2,0,.3.1.3a16.019,16.019,0,0,1,2.6,2.2l3.2-6.5A9.7,9.7,0,0,1,266.7,52.1Z" fill="#ae6b6b"/>
      <g id="Group_9" data-name="Group 9">
        <path id="Path_21" data-name="Path 21" d="M264.8,56.9c-.1-.2-.2-.5-.3-.7a.781.781,0,0,0-.4-.4.471.471,0,0,0-.6-.1L261.8,57l1.2,2.7,1.7-1.3a1.165,1.165,0,0,0,.2-.7A2.486,2.486,0,0,0,264.8,56.9Z" fill="#ae6b6b"/>
        <path id="Path_22" data-name="Path 22" d="M263.2,58.3a3.553,3.553,0,0,0-.4-.9l-.3-.3c-.2-.2-.5-.2-.6,0L259,60.3l.6,1.3,3.5-1.8c.2-.1.3-.4.3-.8A6.359,6.359,0,0,1,263.2,58.3Z" fill="#ae6b6b"/>
        <path id="Path_23" data-name="Path 23" d="M259.3,60.3c-.2-.2-.4,0-.4.3a1.1,1.1,0,0,0,.4.9c.2.2.4,0,.4-.3A1.489,1.489,0,0,0,259.3,60.3Z" fill="#ae6b6b"/>
      </g>
      <path id="Path_24" data-name="Path 24" d="M258.9,60.5l-.1.1c-7.2,7.1-12.8,9.6-18.1,7.9-4.2-1.3-8.8-4.7-7.3-19.5.5-4.8,1-8.3,1.5-11a47.1,47.1,0,0,0,.8-13.7,19.309,19.309,0,0,0-1.5-5.2,20.105,20.105,0,0,1-1.8-8.5c.1-2.5.8-4.3,2-5.2,1.8-1.3,4.6-.9,7.4,1.2.2.2.5.1.7-.2a.765.765,0,0,0-.2-.9c-3-2.3-6.2-2.8-8.3-1.2-1.1.8-2.4,2.6-2.5,6.3-.1,3.8,1,6.6,1.9,9.2a23.452,23.452,0,0,1,1.4,4.8c.5,5.4,0,8.5-.8,13.3-.4,2.8-1,6.3-1.5,11.1-1.3,12.2,1.3,18.8,8.1,21a10.733,10.733,0,0,0,3.5.6c4.6,0,9.5-2.8,15.4-8.7l.1-.1C259.8,61.2,259.3,60.1,258.9,60.5Z" fill="#ae6b6b"/>
      <g id="Group_11" data-name="Group 11">
        <g id="Axonometric_Cylinder_6_">
          <path id="Path_25" data-name="Path 25" d="M238,48.5V59.2a4.319,4.319,0,0,0,1.7,3.3,7.054,7.054,0,0,0,8.3,0,4.134,4.134,0,0,0,1.7-3.2V48.6Z" fill="#ae6b6b"/>
          <path id="Cylinder_face_8_" d="M248,51.8a3.924,3.924,0,0,0,0-6.5,7.054,7.054,0,0,0-8.3,0,3.924,3.924,0,0,0,0,6.5A7.054,7.054,0,0,0,248,51.8Z" fill="#ae6b6b"/>
        </g>
        <g id="Group_10" data-name="Group 10">
          <path id="Path_26" data-name="Path 26" d="M248.4,12.6a6.868,6.868,0,0,1,1.1,3.7,3.978,3.978,0,0,1-1.6,3.1,6.751,6.751,0,0,1-8,.1,4.107,4.107,0,0,1-1.7-3.1C238.5,9.5,245.6,8.7,248.4,12.6Z" fill="#ae6b6b"/>
          <path id="Path_27" data-name="Path 27" d="M249.5,16.4a3.978,3.978,0,0,1-1.6,3.1,5.7,5.7,0,0,1-2.2,1.1,7.013,7.013,0,0,1-2.9.2,6.2,6.2,0,0,1-2.9-1.2,4.107,4.107,0,0,1-1.7-3.1V48.4a3.955,3.955,0,0,0,1.7,3.1,6.864,6.864,0,0,0,2.9,1.2,7.013,7.013,0,0,0,2.9-.2,5.7,5.7,0,0,0,2.2-1.1,3.978,3.978,0,0,0,1.6-3.1Z" fill="#ae6b6b"/>
          <path id="Path_28" data-name="Path 28" d="M247.9,51.4a5.7,5.7,0,0,1-2.2,1.1V20.6a5.7,5.7,0,0,0,2.2-1.1Z" fill="#ae6b6b" opacity="0.3"/>
          <path id="Path_29" data-name="Path 29" d="M245.9,14.9c-1.2.3-2.1,1.3-2,2.2s1.2,1.3,2.5,1c1.2-.3,2.1-1.3,2-2.2C248.2,15,247.1,14.6,245.9,14.9Z" fill="#ae6b6b" opacity="0.5"/>
        </g>
        <g id="Axonometric_Cylinder_5_">
          <path id="Cylinder_face_7_" d="M245.2,11.1a1.214,1.214,0,0,0,0-2,2.271,2.271,0,0,0-2.5,0,1.214,1.214,0,0,0,0,2A2.271,2.271,0,0,0,245.2,11.1Z" fill="#ae6b6b"/>
          <path id="Cylinder_body_4_" d="M242.1,10.1v2.2a1.389,1.389,0,0,0,.5,1,2.271,2.271,0,0,0,2.5,0,1.389,1.389,0,0,0,.5-1V10.1a1.591,1.591,0,0,1-.5,1,2.271,2.271,0,0,1-2.5,0A1.591,1.591,0,0,1,242.1,10.1Z" fill="#ae6b6b"/>
        </g>
        <path id="Path_30" data-name="Path 30" d="M248.6,56.1c0,2.6-.2,5.1-.5,5.6s-.5-1.1-.5-3.7.2-5.1.5-5.6S248.6,53.5,248.6,56.1Z" fill="#ae6b6b" opacity="0.5"/>
        <path id="Path_31" data-name="Path 31" d="M239.3,56.1c0,2.6.2,5.1.5,5.6s.5-1.1.5-3.7-.2-5.1-.5-5.6C239.6,51.9,239.3,53.5,239.3,56.1Z" fill="#ae6b6b" opacity="0.5"/>
      </g>
      <path id="Path_32" data-name="Path 32" d="M243.6,4.9,242.4,4a.631.631,0,0,0-.7.1,2.927,2.927,0,0,0-.9,2.1c0,.4.1.7.3.8l2.5,1.9Z" fill="#ae6b6b"/>
      <g id="Axonometric_Cylinder_4_">
        <path id="Cylinder_face_6_" d="M244.9,4.5a.936.936,0,0,0,0-1.6,1.988,1.988,0,0,0-2.1,0,.936.936,0,0,0,0,1.6A1.8,1.8,0,0,0,244.9,4.5Z" fill="#ae6b6b"/>
        <path id="Cylinder_body_3_" d="M242.5,3.7V9.9a.91.91,0,0,0,.4.8,1.988,1.988,0,0,0,2.1,0,.909.909,0,0,0,.4-.8V3.7a.91.91,0,0,1-.4.8,1.988,1.988,0,0,1-2.1,0A.91.91,0,0,1,242.5,3.7Z" fill="#ae6b6b"/>
      </g>
      <g id="Axonometric_Cylinder_3_">
        <path id="Path_33" data-name="Path 33" d="M241.8,1.9V4.5a1.729,1.729,0,0,0,.6,1.2,2.561,2.561,0,0,0,2.9,0,1.382,1.382,0,0,0,.6-1.1V1.9Z" fill="#ae6b6b"/>
        <path id="Cylinder_face_5_" d="M245.4,3a1.4,1.4,0,0,0,0-2.3,2.561,2.561,0,0,0-2.9,0,1.4,1.4,0,0,0,0,2.3A2.265,2.265,0,0,0,245.4,3Z" fill="#ae6b6b"/>
        <path id="Cylinder_face_4_" d="M244.3,2.2a.375.375,0,0,0,0-.6.483.483,0,0,0-.7,0,.375.375,0,0,0,0,.6C243.8,2.4,244.1,2.3,244.3,2.2Z" fill="#ae6b6b"/>
      </g>
      <g id="Axonometric_Cylinder_2_">
        <path id="Cylinder_face_3_" d="M265.3,58.9c0,1.8,1,2.6,2.1,1.7a7,7,0,0,0,2.1-5c0-1.8-1-2.6-2.1-1.7A7.429,7.429,0,0,0,265.3,58.9Z" fill="#ae6b6b"/>
        <path id="Path_34" data-name="Path 34" d="M267.5,54.3a6.414,6.414,0,0,0-1.9,4.4c0,1.6.8,2.3,1.9,1.5a6.414,6.414,0,0,0,1.9-4.4C269.4,54.2,268.5,53.5,267.5,54.3Zm0,5.7c-1,.8-1.8.1-1.8-1.4a5.619,5.619,0,0,1,1.8-4.1c1-.8,1.8-.1,1.8,1.4A5.8,5.8,0,0,1,267.5,60Z" fill="#ae6b6b"/>
        <path id="Cylinder_body_2_" d="M269,53.7l-.7-.6c-.4-.3-.9-.3-1.5.2a7,7,0,0,0-2.1,5,2.4,2.4,0,0,0,.6,1.9l.7.6a2.4,2.4,0,0,1-.6-1.9,7.429,7.429,0,0,1,2.1-5C268.1,53.4,268.6,53.4,269,53.7Z" fill="#ae6b6b"/>
        <path id="Path_35" data-name="Path 35" d="M266.8,53.3a6.865,6.865,0,0,0-1.8,2.9l.7.6a6.016,6.016,0,0,1,1.8-2.9c.6-.5,1.1-.5,1.5-.2l-.7-.6C267.9,52.8,267.4,52.8,266.8,53.3Z" fill="#ae6b6b"/>
      </g>
      <g id="Axonometric_Cylinder_1_">
        <path id="Cylinder_face_2_" d="M266.7,58.7c0,1.1.6,1.6,1.3,1a4.64,4.64,0,0,0,1.3-3.1c0-1.1-.6-1.6-1.3-1A4.64,4.64,0,0,0,266.7,58.7Z" fill="#ae6b6b"/>
        <path id="Cylinder_face_1_" d="M267.3,58.3c0,.7.4,1,.8.6a2.787,2.787,0,0,0,.8-1.9c0-.7-.4-1-.8-.6A2.561,2.561,0,0,0,267.3,58.3Z" fill="#ae6b6b"/>
        <path id="Path_36" data-name="Path 36" d="M268.1,55.8a3.666,3.666,0,0,0-1.2,2.8c0,1.1.5,1.4,1.2.9a3.666,3.666,0,0,0,1.2-2.8C269.3,55.8,268.7,55.3,268.1,55.8Zm0,3.6c-.6.5-1.1.1-1.1-.8a3.443,3.443,0,0,1,1.1-2.5c.6-.4,1.1-.1,1.1.8A3.63,3.63,0,0,1,268.1,59.4Z" fill="#ae6b6b"/>
        <path id="Cylinder_body_1_" d="M269,55.5l-.5-.4c-.2-.2-.6-.2-1,.1a4.64,4.64,0,0,0-1.3,3.1c0,.6.1,1,.4,1.2l.5.4a1.691,1.691,0,0,1-.4-1.2,4.64,4.64,0,0,1,1.3-3.1C268.5,55.3,268.8,55.3,269,55.5Z" fill="#ae6b6b"/>
        <path id="Path_37" data-name="Path 37" d="M267.6,55.3a3.267,3.267,0,0,0-1.1,1.8l.5.4a3.67,3.67,0,0,1,1.1-1.8.775.775,0,0,1,1-.1l-.5-.4C268.3,54.9,268,55,267.6,55.3Z" fill="#ae6b6b"/>
      </g>
    </g>
  </g>
</svg>
